# MagicaVoxel @ Ephtracy

# group
g Peronio deslizante

# material
mtllib Peronio deslizante.mtl
usemtl palette

# normals
vn -1 0 0
vn 1 0 0
vn 0 0 1
vn 0 0 -1
vn 0 -1 0
vn 0 1 0

# texcoords
vt 0.0878906 0.5
vt 0.0917969 0.5
vt 0.958984 0.5
vt 0.994141 0.5

# verts
v -25 20 14
v -25 20 5
v -25 34 14
v -25 34 5
v -24 19 14
v -24 19 5
v -24 20 15
v -24 20 14
v -24 20 5
v -24 21 5
v -24 21 4
v -24 34 14
v -24 34 5
v -24 35 15
v -24 35 4
v -20 11 14
v -20 11 2
v -20 13 14
v -20 13 2
v -20 16 15
v -20 16 2
v -20 31 15
v -20 31 4
v -20 35 15
v -20 35 5
v -20 35 4
v -20 35 2
v -20 46 15
v -20 46 5
v -19 11 15
v -19 11 14
v -19 11 2
v -19 11 -0
v -19 13 14
v -19 13 2
v -19 14 15
v -19 14 -0
v -19 15 15
v -19 15 -0
v -19 16 15
v -19 16 2
v -19 35 5
v -19 35 3
v -19 35 2
v -19 35 -0
v -19 46 5
v -19 46 3
v -18 11 -0
v -18 11 -2
v -18 14 15
v -18 14 -0
v -18 14 -2
v -18 15 15
v -18 15 -0
v -18 35 3
v -18 35 1
v -18 35 -0
v -18 35 -2
v -18 46 3
v -18 46 1
v -17 35 1
v -17 35 -1
v -17 46 1
v -17 46 -1
v -10 46 15
v -10 46 13
v -10 46 12
v -10 49 15
v -10 49 13
v -10 49 12
v -9 46 12
v -9 46 11
v -9 49 12
v -9 49 11
v -5 11 14
v -5 11 2
v -5 14 14
v -5 14 2
v -4 11 15
v -4 11 14
v -4 11 2
v -4 11 -0
v -4 14 15
v -4 14 14
v -4 14 2
v -4 14 -0
v -3 11 -0
v -3 11 -2
v -3 14 -0
v -3 14 -2
v 8 20 14
v 8 20 5
v 8 31 14
v 8 31 5
v 9 19 14
v 9 19 5
v 9 20 15
v 9 20 14
v 9 20 5
v 9 31 15
v 9 31 14
v -22 19 14
v -22 19 5
v -22 20 15
v -22 20 14
v -22 20 5
v -22 21 5
v -22 21 4
v -22 31 15
v -22 31 14
v -22 31 5
v -22 31 4
v -21 20 14
v -21 20 5
v -21 31 14
v -21 31 5
v -10 11 -0
v -10 11 -2
v -10 14 -0
v -10 14 -2
v -9 11 15
v -9 11 14
v -9 11 2
v -9 11 -0
v -9 14 15
v -9 14 14
v -9 14 2
v -9 14 -0
v -8 11 14
v -8 11 2
v -8 14 14
v -8 14 2
v -4 46 12
v -4 46 11
v -4 49 12
v -4 49 11
v -3 46 15
v -3 46 13
v -3 46 12
v -3 49 15
v -3 49 13
v -3 49 12
v 4 35 1
v 4 35 -1
v 4 46 1
v 4 46 -1
v 5 11 -0
v 5 11 -2
v 5 14 15
v 5 14 -0
v 5 14 -2
v 5 15 15
v 5 15 -0
v 5 35 3
v 5 35 1
v 5 35 -0
v 5 35 -2
v 5 46 3
v 5 46 1
v 6 11 15
v 6 11 14
v 6 11 2
v 6 11 -0
v 6 13 14
v 6 13 2
v 6 14 15
v 6 14 -0
v 6 15 15
v 6 15 -0
v 6 16 15
v 6 16 2
v 6 35 5
v 6 35 3
v 6 35 2
v 6 35 -0
v 6 46 5
v 6 46 3
v 7 11 14
v 7 11 2
v 7 13 14
v 7 13 2
v 7 16 15
v 7 16 2
v 7 19 5
v 7 19 4
v 7 31 15
v 7 31 5
v 7 35 15
v 7 35 5
v 7 35 4
v 7 35 2
v 7 46 15
v 7 46 5
v 11 19 14
v 11 19 4
v 11 20 15
v 11 20 14
v 11 20 6
v 11 34 14
v 11 34 6
v 11 35 15
v 11 35 4
v 12 20 14
v 12 20 6
v 12 34 14
v 12 34 6
v -24 20 15
v -24 35 15
v -22 20 15
v -22 31 15
v -20 16 15
v -20 31 15
v -20 35 15
v -20 46 15
v -19 11 15
v -19 14 15
v -19 15 15
v -19 16 15
v -18 14 15
v -18 15 15
v -15 27 15
v -15 46 15
v -14 16 15
v -14 27 15
v -10 46 15
v -10 49 15
v -9 11 15
v -9 14 15
v -4 11 15
v -4 14 15
v -3 46 15
v -3 49 15
v 1 16 15
v 1 27 15
v 2 27 15
v 2 46 15
v 5 14 15
v 5 15 15
v 6 11 15
v 6 14 15
v 6 15 15
v 6 16 15
v 7 16 15
v 7 31 15
v 7 35 15
v 7 46 15
v 9 20 15
v 9 31 15
v 11 20 15
v 11 35 15
v -25 20 14
v -25 34 14
v -24 19 14
v -24 20 14
v -24 34 14
v -22 19 14
v -22 20 14
v -22 31 14
v -21 20 14
v -21 31 14
v -20 11 14
v -20 13 14
v -19 11 14
v -19 13 14
v -9 11 14
v -9 14 14
v -8 11 14
v -8 14 14
v -5 11 14
v -5 14 14
v -4 11 14
v -4 14 14
v 6 11 14
v 6 13 14
v 7 11 14
v 7 13 14
v 8 20 14
v 8 31 14
v 9 19 14
v 9 20 14
v 9 31 14
v 11 19 14
v 11 20 14
v 11 34 14
v 12 20 14
v 12 34 14
v 7 19 5
v 7 31 5
v 8 20 5
v 8 31 5
v 9 19 5
v 9 20 5
v -10 46 12
v -10 49 12
v -9 46 12
v -9 49 12
v -4 46 12
v -4 49 12
v -3 46 12
v -3 49 12
v -9 46 11
v -9 49 11
v -4 46 11
v -4 49 11
v 11 20 6
v 11 34 6
v 12 20 6
v 12 34 6
v -25 20 5
v -25 34 5
v -24 19 5
v -24 20 5
v -24 21 5
v -24 34 5
v -22 19 5
v -22 20 5
v -22 21 5
v -22 31 5
v -21 20 5
v -21 31 5
v -20 35 5
v -20 46 5
v -19 35 5
v -19 46 5
v 6 35 5
v 6 46 5
v 7 35 5
v 7 46 5
v -24 21 4
v -24 35 4
v -22 21 4
v -22 31 4
v -20 31 4
v -20 35 4
v 7 19 4
v 7 35 4
v 11 19 4
v 11 35 4
v -19 35 3
v -19 46 3
v -18 35 3
v -18 46 3
v 5 35 3
v 5 46 3
v 6 35 3
v 6 46 3
v -20 11 2
v -20 13 2
v -20 16 2
v -20 35 2
v -19 11 2
v -19 13 2
v -19 16 2
v -19 35 2
v -9 11 2
v -9 14 2
v -8 11 2
v -8 14 2
v -5 11 2
v -5 14 2
v -4 11 2
v -4 14 2
v 6 11 2
v 6 13 2
v 6 16 2
v 6 35 2
v 7 11 2
v 7 13 2
v 7 16 2
v 7 35 2
v -18 35 1
v -18 46 1
v -17 35 1
v -17 46 1
v 4 35 1
v 4 46 1
v 5 35 1
v 5 46 1
v -19 11 -0
v -19 14 -0
v -19 15 -0
v -19 35 -0
v -18 11 -0
v -18 14 -0
v -18 15 -0
v -18 35 -0
v -10 11 -0
v -10 14 -0
v -9 11 -0
v -9 14 -0
v -4 11 -0
v -4 14 -0
v -3 11 -0
v -3 14 -0
v 5 11 -0
v 5 14 -0
v 5 15 -0
v 5 35 -0
v 6 11 -0
v 6 14 -0
v 6 15 -0
v 6 35 -0
v -17 35 -1
v -17 46 -1
v 4 35 -1
v 4 46 -1
v -18 11 -2
v -18 14 -2
v -18 35 -2
v -10 11 -2
v -10 14 -2
v -3 11 -2
v -3 14 -2
v 5 11 -2
v 5 14 -2
v 5 35 -2
v -19 11 15
v -9 11 15
v -4 11 15
v 6 11 15
v -20 11 14
v -19 11 14
v -9 11 14
v -8 11 14
v -5 11 14
v -4 11 14
v 6 11 14
v 7 11 14
v -20 11 2
v -19 11 2
v -9 11 2
v -8 11 2
v -5 11 2
v -4 11 2
v 6 11 2
v 7 11 2
v -19 11 -0
v -18 11 -0
v -10 11 -0
v -9 11 -0
v -4 11 -0
v -3 11 -0
v 5 11 -0
v 6 11 -0
v -18 11 -2
v -10 11 -2
v -3 11 -2
v 5 11 -2
v -9 14 15
v -4 14 15
v -9 14 14
v -8 14 14
v -5 14 14
v -4 14 14
v -9 14 2
v -8 14 2
v -5 14 2
v -4 14 2
v -10 14 -0
v -9 14 -0
v -4 14 -0
v -3 14 -0
v -10 14 -2
v -3 14 -2
v -19 15 15
v -18 15 15
v 5 15 15
v 6 15 15
v -19 15 -0
v -18 15 -0
v 5 15 -0
v 6 15 -0
v -20 16 15
v -19 16 15
v 6 16 15
v 7 16 15
v -20 16 2
v -19 16 2
v 6 16 2
v 7 16 2
v -24 19 14
v -22 19 14
v 9 19 14
v 11 19 14
v -24 19 5
v -22 19 5
v 7 19 5
v 9 19 5
v 7 19 4
v 11 19 4
v -24 20 15
v -22 20 15
v 9 20 15
v 11 20 15
v -25 20 14
v -24 20 14
v -22 20 14
v -21 20 14
v 8 20 14
v 9 20 14
v 11 20 14
v 12 20 14
v 11 20 6
v 12 20 6
v -25 20 5
v -24 20 5
v -22 20 5
v -21 20 5
v 8 20 5
v 9 20 5
v -24 21 5
v -22 21 5
v -24 21 4
v -22 21 4
v -22 31 15
v -20 31 15
v 7 31 15
v 9 31 15
v -22 31 14
v -21 31 14
v 8 31 14
v 9 31 14
v -22 31 5
v -21 31 5
v 7 31 5
v 8 31 5
v -22 31 4
v -20 31 4
v -20 13 14
v -19 13 14
v 6 13 14
v 7 13 14
v -20 13 2
v -19 13 2
v 6 13 2
v 7 13 2
v -19 14 15
v -18 14 15
v 5 14 15
v 6 14 15
v -19 14 -0
v -18 14 -0
v 5 14 -0
v 6 14 -0
v -25 34 14
v -24 34 14
v 11 34 14
v 12 34 14
v 11 34 6
v 12 34 6
v -25 34 5
v -24 34 5
v -24 35 15
v -20 35 15
v 7 35 15
v 11 35 15
v -20 35 5
v -19 35 5
v 6 35 5
v 7 35 5
v -24 35 4
v -20 35 4
v 7 35 4
v 11 35 4
v -19 35 3
v -18 35 3
v 5 35 3
v 6 35 3
v -20 35 2
v -19 35 2
v 6 35 2
v 7 35 2
v -18 35 1
v -17 35 1
v 4 35 1
v 5 35 1
v -19 35 -0
v -18 35 -0
v 5 35 -0
v 6 35 -0
v -17 35 -1
v 4 35 -1
v -18 35 -2
v 5 35 -2
v -20 46 15
v -15 46 15
v -10 46 15
v -3 46 15
v 2 46 15
v 7 46 15
v -10 46 13
v -3 46 13
v -10 46 12
v -9 46 12
v -4 46 12
v -3 46 12
v -9 46 11
v -4 46 11
v -9 46 10
v -7 46 10
v -6 46 10
v -4 46 10
v -15 46 7
v -14 46 7
v 1 46 7
v 2 46 7
v -9 46 6
v -7 46 6
v -6 46 6
v -4 46 6
v -20 46 5
v -19 46 5
v -14 46 5
v -13 46 5
v 0 46 5
v 1 46 5
v 6 46 5
v 7 46 5
v -19 46 3
v -18 46 3
v -13 46 3
v 0 46 3
v 5 46 3
v 6 46 3
v -18 46 1
v -17 46 1
v 4 46 1
v 5 46 1
v -17 46 -1
v 4 46 -1
v -10 49 15
v -3 49 15
v -10 49 13
v -9 49 13
v -4 49 13
v -3 49 13
v -10 49 12
v -9 49 12
v -4 49 12
v -3 49 12
v -9 49 11
v -4 49 11

# faces
f 3/4/1 2/4/1 1/4/1
f 4/4/1 2/4/1 3/4/1
f 8/4/1 6/4/1 5/4/1
f 9/4/1 6/4/1 8/4/1
f 12/4/1 8/4/1 7/4/1
f 13/4/1 11/4/1 10/4/1
f 14/4/1 12/4/1 7/4/1
f 14/4/1 13/4/1 12/4/1
f 15/4/1 11/4/1 13/4/1
f 15/4/1 13/4/1 14/4/1
f 18/1/1 17/1/1 16/1/1
f 19/1/1 17/1/1 18/1/1
f 22/4/1 21/4/1 20/4/1
f 23/4/1 21/4/1 22/4/1
f 26/4/1 21/4/1 23/4/1
f 27/4/1 21/4/1 26/4/1
f 28/4/1 25/4/1 24/4/1
f 29/4/1 25/4/1 28/4/1
f 34/1/1 31/1/1 30/1/1
f 35/1/1 33/1/1 32/1/1
f 36/1/1 34/1/1 30/1/1
f 36/1/1 35/1/1 34/1/1
f 37/1/1 33/1/1 35/1/1
f 37/1/1 35/1/1 36/1/1
f 40/4/1 39/4/1 38/4/1
f 41/4/1 39/4/1 40/4/1
f 44/4/1 39/4/1 41/4/1
f 45/4/1 39/4/1 44/4/1
f 46/4/1 43/4/1 42/4/1
f 47/4/1 43/4/1 46/4/1
f 51/1/1 49/1/1 48/1/1
f 52/1/1 49/1/1 51/1/1
f 53/4/1 51/4/1 50/4/1
f 53/4/1 52/4/1 51/4/1
f 54/4/1 52/4/1 53/4/1
f 57/4/1 52/4/1 54/4/1
f 58/4/1 52/4/1 57/4/1
f 59/4/1 56/4/1 55/4/1
f 60/4/1 56/4/1 59/4/1
f 63/4/1 62/4/1 61/4/1
f 64/4/1 62/4/1 63/4/1
f 68/1/1 66/1/1 65/1/1
f 69/2/1 67/2/1 66/2/1
f 69/1/1 66/1/1 68/1/1
f 70/2/1 67/2/1 69/2/1
f 73/2/1 72/2/1 71/2/1
f 74/2/1 72/2/1 73/2/1
f 77/1/1 76/1/1 75/1/1
f 78/1/1 76/1/1 77/1/1
f 83/1/1 80/1/1 79/1/1
f 84/1/1 80/1/1 83/1/1
f 85/1/1 82/1/1 81/1/1
f 86/1/1 82/1/1 85/1/1
f 89/1/1 88/1/1 87/1/1
f 90/1/1 88/1/1 89/1/1
f 93/4/1 92/4/1 91/4/1
f 94/4/1 92/4/1 93/4/1
f 98/4/1 96/4/1 95/4/1
f 99/4/1 96/4/1 98/4/1
f 100/4/1 98/4/1 97/4/1
f 101/4/1 98/4/1 100/4/1
f 102/4/2 103/4/2 105/4/2
f 105/4/2 103/4/2 106/4/2
f 104/4/2 105/4/2 109/4/2
f 109/4/2 105/4/2 110/4/2
f 107/4/2 108/4/2 111/4/2
f 111/4/2 108/4/2 112/4/2
f 113/4/2 114/4/2 115/4/2
f 115/4/2 114/4/2 116/4/2
f 117/1/2 118/1/2 119/1/2
f 119/1/2 118/1/2 120/1/2
f 121/1/2 122/1/2 125/1/2
f 125/1/2 122/1/2 126/1/2
f 123/1/2 124/1/2 127/1/2
f 127/1/2 124/1/2 128/1/2
f 129/1/2 130/1/2 131/1/2
f 131/1/2 130/1/2 132/1/2
f 133/2/2 134/2/2 135/2/2
f 135/2/2 134/2/2 136/2/2
f 137/1/2 138/1/2 140/1/2
f 138/2/2 139/2/2 141/2/2
f 140/1/2 138/1/2 141/1/2
f 141/2/2 139/2/2 142/2/2
f 143/4/2 144/4/2 145/4/2
f 145/4/2 144/4/2 146/4/2
f 147/1/2 148/1/2 150/1/2
f 150/1/2 148/1/2 151/1/2
f 149/4/2 150/4/2 152/4/2
f 150/4/2 151/4/2 152/4/2
f 152/4/2 151/4/2 153/4/2
f 153/4/2 151/4/2 156/4/2
f 156/4/2 151/4/2 157/4/2
f 154/4/2 155/4/2 158/4/2
f 158/4/2 155/4/2 159/4/2
f 160/1/2 161/1/2 164/1/2
f 162/1/2 163/1/2 165/1/2
f 160/1/2 164/1/2 166/1/2
f 164/1/2 165/1/2 166/1/2
f 165/1/2 163/1/2 167/1/2
f 166/1/2 165/1/2 167/1/2
f 168/4/2 169/4/2 170/4/2
f 170/4/2 169/4/2 171/4/2
f 171/4/2 169/4/2 174/4/2
f 174/4/2 169/4/2 175/4/2
f 172/4/2 173/4/2 176/4/2
f 176/4/2 173/4/2 177/4/2
f 178/1/2 179/1/2 180/1/2
f 180/1/2 179/1/2 181/1/2
f 182/4/2 183/4/2 184/4/2
f 184/4/2 183/4/2 185/4/2
f 182/4/2 184/4/2 186/4/2
f 186/4/2 184/4/2 187/4/2
f 185/4/2 183/4/2 190/4/2
f 190/4/2 183/4/2 191/4/2
f 188/4/2 189/4/2 192/4/2
f 192/4/2 189/4/2 193/4/2
f 194/4/2 195/4/2 197/4/2
f 197/4/2 195/4/2 198/4/2
f 196/4/2 197/4/2 199/4/2
f 198/4/2 195/4/2 200/4/2
f 196/4/2 199/4/2 201/4/2
f 199/4/2 200/4/2 201/4/2
f 200/4/2 195/4/2 202/4/2
f 201/4/2 200/4/2 202/4/2
f 203/4/2 204/4/2 205/4/2
f 205/4/2 204/4/2 206/4/2
f 209/4/3 208/4/3 207/4/3
f 210/4/3 208/4/3 209/4/3
f 212/4/3 208/4/3 210/4/3
f 213/4/3 208/4/3 212/4/3
f 218/4/3 212/4/3 211/4/3
f 218/4/3 213/4/3 212/4/3
f 218/4/3 214/4/3 213/4/3
f 219/1/3 216/1/3 215/1/3
f 220/4/3 218/4/3 217/4/3
f 221/4/3 214/4/3 218/4/3
f 221/4/3 220/4/3 219/4/3
f 221/4/3 218/4/3 220/4/3
f 222/4/3 214/4/3 221/4/3
f 223/4/3 221/4/3 219/4/3
f 224/3/3 222/3/3 221/3/3
f 224/4/3 221/4/3 223/4/3
f 225/3/3 224/3/3 223/3/3
f 225/3/3 222/3/3 224/3/3
f 227/1/3 219/1/3 215/1/3
f 228/4/3 223/4/3 219/4/3
f 228/1/3 219/1/3 227/1/3
f 230/4/3 223/4/3 228/4/3
f 231/1/3 226/1/3 225/1/3
f 231/3/3 225/3/3 223/3/3
f 232/1/3 226/1/3 231/1/3
f 233/4/3 223/4/3 230/4/3
f 233/3/3 231/3/3 223/3/3
f 234/3/3 231/3/3 233/3/3
f 235/4/3 234/4/3 233/4/3
f 235/3/3 231/3/3 234/3/3
f 236/3/3 231/3/3 235/3/3
f 237/1/3 230/1/3 229/1/3
f 237/4/3 233/4/3 230/4/3
f 237/4/3 236/4/3 235/4/3
f 237/4/3 235/4/3 233/4/3
f 238/4/3 236/4/3 237/4/3
f 239/1/3 237/1/3 229/1/3
f 240/1/3 237/1/3 239/1/3
f 241/4/3 236/4/3 238/4/3
f 242/4/3 236/4/3 241/4/3
f 243/4/3 236/4/3 242/4/3
f 244/4/3 236/4/3 243/4/3
f 245/4/3 236/4/3 244/4/3
f 246/4/3 236/4/3 245/4/3
f 248/4/3 245/4/3 244/4/3
f 249/4/3 248/4/3 247/4/3
f 250/4/3 245/4/3 248/4/3
f 250/4/3 248/4/3 249/4/3
f 254/4/3 252/4/3 251/4/3
f 255/4/3 252/4/3 254/4/3
f 256/4/3 254/4/3 253/4/3
f 257/4/3 254/4/3 256/4/3
f 259/4/3 258/4/3 257/4/3
f 260/4/3 258/4/3 259/4/3
f 263/1/3 262/1/3 261/1/3
f 264/1/3 262/1/3 263/1/3
f 267/1/3 266/1/3 265/1/3
f 268/1/3 266/1/3 267/1/3
f 271/1/3 270/1/3 269/1/3
f 272/1/3 270/1/3 271/1/3
f 275/1/3 274/1/3 273/1/3
f 276/1/3 274/1/3 275/1/3
f 280/4/3 278/4/3 277/4/3
f 281/4/3 278/4/3 280/4/3
f 282/4/3 280/4/3 279/4/3
f 283/4/3 280/4/3 282/4/3
f 285/4/3 284/4/3 283/4/3
f 286/4/3 284/4/3 285/4/3
f 289/4/3 288/4/3 287/4/3
f 290/4/3 288/4/3 289/4/3
f 291/4/3 289/4/3 287/4/3
f 292/4/3 289/4/3 291/4/3
f 293/2/4 294/2/4 295/2/4
f 295/2/4 294/2/4 296/2/4
f 297/2/4 298/2/4 299/2/4
f 299/2/4 298/2/4 300/2/4
f 301/2/4 302/2/4 303/2/4
f 303/2/4 302/2/4 304/2/4
f 305/4/4 306/4/4 307/4/4
f 307/4/4 306/4/4 308/4/4
f 309/4/4 310/4/4 312/4/4
f 312/4/4 310/4/4 313/4/4
f 313/4/4 310/4/4 314/4/4
f 311/4/4 312/4/4 315/4/4
f 312/4/4 313/4/4 315/4/4
f 315/4/4 313/4/4 316/4/4
f 316/4/4 313/4/4 317/4/4
f 317/4/4 318/4/4 319/4/4
f 316/4/4 317/4/4 319/4/4
f 319/4/4 318/4/4 320/4/4
f 321/4/4 322/4/4 323/4/4
f 323/4/4 322/4/4 324/4/4
f 325/4/4 326/4/4 327/4/4
f 327/4/4 326/4/4 328/4/4
f 329/4/4 330/4/4 331/4/4
f 331/4/4 330/4/4 332/4/4
f 332/4/4 330/4/4 333/4/4
f 333/4/4 330/4/4 334/4/4
f 335/4/4 336/4/4 337/4/4
f 337/4/4 336/4/4 338/4/4
f 339/4/4 340/4/4 341/4/4
f 341/4/4 340/4/4 342/4/4
f 343/4/4 344/4/4 345/4/4
f 345/4/4 344/4/4 346/4/4
f 347/1/4 348/1/4 351/1/4
f 351/1/4 348/1/4 352/1/4
f 349/4/4 350/4/4 353/4/4
f 353/4/4 350/4/4 354/4/4
f 355/1/4 356/1/4 357/1/4
f 357/1/4 356/1/4 358/1/4
f 359/1/4 360/1/4 361/1/4
f 361/1/4 360/1/4 362/1/4
f 363/1/4 364/1/4 367/1/4
f 367/1/4 364/1/4 368/1/4
f 365/4/4 366/4/4 369/4/4
f 369/4/4 366/4/4 370/4/4
f 371/4/4 372/4/4 373/4/4
f 373/4/4 372/4/4 374/4/4
f 375/4/4 376/4/4 377/4/4
f 377/4/4 376/4/4 378/4/4
f 379/1/4 380/1/4 383/1/4
f 383/1/4 380/1/4 384/1/4
f 381/4/4 382/4/4 385/4/4
f 385/4/4 382/4/4 386/4/4
f 387/1/4 388/1/4 389/1/4
f 389/1/4 388/1/4 390/1/4
f 391/1/4 392/1/4 393/1/4
f 393/1/4 392/1/4 394/1/4
f 395/1/4 396/1/4 399/1/4
f 399/1/4 396/1/4 400/1/4
f 397/4/4 398/4/4 401/4/4
f 401/4/4 398/4/4 402/4/4
f 403/4/4 404/4/4 405/4/4
f 405/4/4 404/4/4 406/4/4
f 407/1/4 408/1/4 410/1/4
f 408/4/4 409/4/4 411/4/4
f 410/1/4 408/1/4 411/1/4
f 411/4/4 409/4/4 413/4/4
f 412/1/4 413/1/4 414/1/4
f 413/4/4 409/4/4 415/4/4
f 414/1/4 413/1/4 415/1/4
f 415/4/4 409/4/4 416/4/4
f 422/1/5 418/1/5 417/1/5
f 423/1/5 418/1/5 422/1/5
f 426/1/5 420/1/5 419/1/5
f 427/1/5 420/1/5 426/1/5
f 429/1/5 424/1/5 423/1/5
f 429/1/5 422/1/5 421/1/5
f 429/1/5 423/1/5 422/1/5
f 430/1/5 424/1/5 429/1/5
f 431/1/5 424/1/5 430/1/5
f 432/1/5 424/1/5 431/1/5
f 433/1/5 428/1/5 427/1/5
f 433/1/5 427/1/5 426/1/5
f 433/1/5 426/1/5 425/1/5
f 434/1/5 428/1/5 433/1/5
f 435/1/5 428/1/5 434/1/5
f 436/1/5 428/1/5 435/1/5
f 437/1/5 431/1/5 430/1/5
f 438/1/5 431/1/5 437/1/5
f 439/1/5 431/1/5 438/1/5
f 440/1/5 431/1/5 439/1/5
f 441/1/5 435/1/5 434/1/5
f 442/1/5 435/1/5 441/1/5
f 443/1/5 435/1/5 442/1/5
f 444/1/5 435/1/5 443/1/5
f 445/1/5 439/1/5 438/1/5
f 446/1/5 439/1/5 445/1/5
f 447/1/5 443/1/5 442/1/5
f 448/1/5 443/1/5 447/1/5
f 451/4/5 450/4/5 449/4/5
f 452/4/5 450/4/5 451/4/5
f 453/4/5 450/4/5 452/4/5
f 454/4/5 450/4/5 453/4/5
f 456/4/5 453/4/5 452/4/5
f 457/4/5 453/4/5 456/4/5
f 460/4/5 456/4/5 455/4/5
f 460/4/5 458/4/5 457/4/5
f 460/4/5 457/4/5 456/4/5
f 461/4/5 458/4/5 460/4/5
f 463/4/5 461/4/5 460/4/5
f 463/4/5 462/4/5 461/4/5
f 463/4/5 460/4/5 459/4/5
f 464/4/5 462/4/5 463/4/5
f 469/4/5 466/4/5 465/4/5
f 470/4/5 466/4/5 469/4/5
f 471/4/5 468/4/5 467/4/5
f 472/4/5 468/4/5 471/4/5
f 477/4/5 474/4/5 473/4/5
f 478/4/5 474/4/5 477/4/5
f 479/4/5 476/4/5 475/4/5
f 480/4/5 476/4/5 479/4/5
f 485/4/5 482/4/5 481/4/5
f 486/4/5 482/4/5 485/4/5
f 488/4/5 484/4/5 483/4/5
f 489/4/5 488/4/5 487/4/5
f 490/4/5 484/4/5 488/4/5
f 490/4/5 488/4/5 489/4/5
f 496/4/5 492/4/5 491/4/5
f 497/4/5 492/4/5 496/4/5
f 500/4/5 494/4/5 493/4/5
f 501/4/5 494/4/5 500/4/5
f 503/4/5 502/4/5 501/4/5
f 504/4/5 502/4/5 503/4/5
f 505/4/5 496/4/5 495/4/5
f 506/4/5 496/4/5 505/4/5
f 507/4/5 498/4/5 497/4/5
f 508/4/5 498/4/5 507/4/5
f 509/4/5 500/4/5 499/4/5
f 510/4/5 500/4/5 509/4/5
f 513/4/5 512/4/5 511/4/5
f 514/4/5 512/4/5 513/4/5
f 519/4/5 516/4/5 515/4/5
f 520/4/5 516/4/5 519/4/5
f 521/4/5 518/4/5 517/4/5
f 522/4/5 518/4/5 521/4/5
f 524/4/5 516/4/5 520/4/5
f 525/4/5 521/4/5 517/4/5
f 526/4/5 521/4/5 525/4/5
f 527/4/5 524/4/5 523/4/5
f 528/4/5 516/4/5 524/4/5
f 528/4/5 524/4/5 527/4/5
f 529/1/6 530/1/6 533/1/6
f 533/1/6 530/1/6 534/1/6
f 531/1/6 532/1/6 535/1/6
f 535/1/6 532/1/6 536/1/6
f 537/1/6 538/1/6 541/1/6
f 541/1/6 538/1/6 542/1/6
f 539/1/6 540/1/6 543/1/6
f 543/1/6 540/1/6 544/1/6
f 547/4/6 548/4/6 549/4/6
f 549/4/6 548/4/6 550/4/6
f 545/4/6 546/4/6 551/4/6
f 551/4/6 546/4/6 552/4/6
f 553/4/6 554/4/6 557/4/6
f 555/4/6 556/4/6 560/4/6
f 557/4/6 558/4/6 561/4/6
f 553/4/6 557/4/6 561/4/6
f 561/4/6 558/4/6 562/4/6
f 559/4/6 560/4/6 563/4/6
f 560/4/6 556/4/6 563/4/6
f 563/4/6 556/4/6 564/4/6
f 562/4/6 558/4/6 565/4/6
f 559/4/6 563/4/6 568/4/6
f 565/4/6 566/4/6 569/4/6
f 562/4/6 565/4/6 569/4/6
f 569/4/6 566/4/6 570/4/6
f 567/4/6 568/4/6 571/4/6
f 568/4/6 563/4/6 571/4/6
f 571/4/6 563/4/6 572/4/6
f 570/4/6 566/4/6 573/4/6
f 567/4/6 571/4/6 576/4/6
f 573/4/6 574/4/6 577/4/6
f 570/4/6 573/4/6 577/4/6
f 577/4/6 574/4/6 578/4/6
f 575/4/6 576/4/6 579/4/6
f 576/4/6 571/4/6 579/4/6
f 579/4/6 571/4/6 580/4/6
f 578/4/6 574/4/6 581/4/6
f 575/4/6 579/4/6 582/4/6
f 578/4/6 581/4/6 583/4/6
f 581/4/6 582/4/6 583/4/6
f 582/4/6 579/4/6 584/4/6
f 583/4/6 582/4/6 584/4/6
f 586/3/6 587/3/6 591/3/6
f 588/3/6 589/3/6 592/3/6
f 586/3/6 591/3/6 593/3/6
f 592/3/6 589/3/6 596/3/6
f 593/3/6 594/3/6 597/3/6
f 595/3/6 596/3/6 598/3/6
f 593/3/6 597/3/6 599/3/6
f 597/3/6 598/3/6 599/3/6
f 599/3/6 598/3/6 600/3/6
f 600/3/6 598/3/6 601/3/6
f 598/3/6 596/3/6 602/3/6
f 601/3/6 598/3/6 602/3/6
f 585/4/6 586/4/6 603/4/6
f 586/3/6 593/3/6 603/3/6
f 593/3/6 599/3/6 603/3/6
f 603/3/6 599/3/6 604/3/6
f 602/3/6 596/3/6 605/3/6
f 596/3/6 589/3/6 605/3/6
f 589/4/6 590/4/6 606/4/6
f 605/3/6 589/3/6 606/3/6
f 604/3/6 599/3/6 607/3/6
f 599/4/6 600/4/6 607/4/6
f 600/3/6 601/3/6 608/3/6
f 607/4/6 600/4/6 608/4/6
f 601/4/6 602/4/6 609/4/6
f 608/3/6 601/3/6 609/3/6
f 602/3/6 605/3/6 610/3/6
f 609/4/6 602/4/6 610/4/6
f 603/4/6 604/4/6 611/4/6
f 585/4/6 603/4/6 611/4/6
f 611/4/6 604/4/6 612/4/6
f 608/3/6 609/3/6 613/3/6
f 612/4/6 604/4/6 613/4/6
f 604/3/6 607/3/6 613/3/6
f 607/3/6 608/3/6 613/3/6
f 609/3/6 610/3/6 613/3/6
f 613/3/6 610/3/6 614/3/6
f 610/3/6 605/3/6 615/3/6
f 614/3/6 610/3/6 615/3/6
f 605/4/6 606/4/6 616/4/6
f 615/3/6 605/3/6 616/3/6
f 606/4/6 590/4/6 617/4/6
f 616/4/6 606/4/6 617/4/6
f 617/4/6 590/4/6 618/4/6
f 613/4/6 614/4/6 619/4/6
f 612/4/6 613/4/6 619/4/6
f 619/4/6 614/4/6 620/4/6
f 614/3/6 615/3/6 621/3/6
f 620/4/6 614/4/6 621/4/6
f 615/4/6 616/4/6 622/4/6
f 621/3/6 615/3/6 622/3/6
f 616/4/6 617/4/6 622/4/6
f 622/4/6 617/4/6 623/4/6
f 623/4/6 617/4/6 624/4/6
f 620/4/6 621/4/6 625/4/6
f 622/4/6 623/4/6 625/4/6
f 621/4/6 622/4/6 625/4/6
f 625/4/6 623/4/6 626/4/6
f 626/4/6 623/4/6 627/4/6
f 627/4/6 623/4/6 628/4/6
f 626/4/6 627/4/6 629/4/6
f 629/4/6 627/4/6 630/4/6
f 631/1/6 632/1/6 633/1/6
f 633/1/6 632/1/6 634/1/6
f 634/1/6 632/1/6 635/1/6
f 635/1/6 632/1/6 636/1/6
f 633/2/6 634/2/6 637/2/6
f 634/1/6 635/1/6 638/1/6
f 637/2/6 634/2/6 638/2/6
f 635/2/6 636/2/6 639/2/6
f 638/1/6 635/1/6 639/1/6
f 639/2/6 636/2/6 640/2/6
f 638/2/6 639/2/6 641/2/6
f 641/2/6 639/2/6 642/2/6
