# MagicaVoxel @ Ephtracy

# group
g Torcedor Azul

# material
mtllib Torcedor Azul.mtl
usemtl palette

# normals
vn -1 0 0
vn 1 0 0
vn 0 0 1
vn 0 0 -1
vn 0 -1 0
vn 0 1 0

# texcoords
vt 0.00195313 0.5
vt 0.306641 0.5
vt 0.490234 0.5
vt 0.919922 0.5
vt 0.923828 0.5
vt 0.931641 0.5
vt 0.958984 0.5
vt 0.970703 0.5
vt 0.994141 0.5

# verts
v -15 20 11
v -15 20 10
v -15 21 11
v -15 21 10
v -14 19 11
v -14 19 10
v -14 20 11
v -14 20 10
v -13 18 11
v -13 18 10
v -13 19 11
v -13 19 10
v -11 9 8
v -11 9 1
v -11 10 9
v -11 10 8
v -11 11 10
v -11 11 9
v -11 12 11
v -11 12 10
v -11 14 11
v -11 14 1
v -10 3 5
v -10 3 -8
v -10 4 -7
v -10 4 -8
v -10 9 5
v -10 9 1
v -10 14 11
v -10 14 10
v -10 14 5
v -10 14 1
v -10 18 11
v -10 18 10
v -10 21 5
v -10 21 -7
v -9 0 5
v -9 0 -7
v -9 2 5
v -9 2 -7
v -9 4 -7
v -9 4 -8
v -9 21 5
v -9 21 -7
v -9 21 -8
v -9 23 5
v -9 23 -7
v -8 2 4
v -8 2 -6
v -8 3 4
v -8 3 -6
v -8 21 -7
v -8 21 -8
v -8 23 5
v -8 23 -7
v -8 23 -8
v -8 25 5
v -8 25 -7
v -7 23 -7
v -7 23 -8
v -7 25 5
v -7 25 -7
v -7 25 -8
v -7 26 5
v -7 26 -7
v -6 3 -8
v -6 3 -9
v -6 4 -8
v -6 4 -9
v -4 26 7
v -4 26 5
v -4 26 -2
v -4 27 7
v -4 27 5
v -4 27 -2
v -4 31 5
v -4 31 -2
v -3 14 7
v -3 14 5
v -3 17 7
v -3 17 5
v -2 28 6
v -2 28 5
v -2 29 6
v -2 29 5
v 0 0 5
v 0 0 -7
v 0 1 5
v 0 1 -7
v 0 28 6
v 0 28 5
v 0 29 6
v 0 29 5
v 1 15 6
v 1 15 5
v 1 15 4
v 1 16 6
v 1 16 5
v 1 16 4
v 9 9 8
v 9 9 5
v 9 10 9
v 9 10 8
v 9 11 10
v 9 11 9
v 9 12 11
v 9 12 10
v 9 14 11
v 9 14 5
v -10 9 8
v -10 9 5
v -10 10 9
v -10 10 8
v -10 11 10
v -10 11 9
v -10 12 10
v -10 14 10
v -10 14 5
v -9 12 11
v -9 12 10
v -9 21 11
v -9 21 10
v -2 15 6
v -2 15 5
v -2 15 4
v -2 16 6
v -2 16 5
v -2 16 4
v -1 0 5
v -1 0 -7
v -1 1 5
v -1 1 -7
v -1 28 6
v -1 28 5
v -1 29 6
v -1 29 5
v 1 28 6
v 1 28 5
v 1 29 6
v 1 29 5
v 2 14 7
v 2 14 5
v 2 17 7
v 2 17 5
v 3 26 7
v 3 26 5
v 3 26 -2
v 3 27 7
v 3 27 5
v 3 27 -2
v 3 31 5
v 3 31 -2
v 5 3 -8
v 5 3 -9
v 5 4 -8
v 5 4 -9
v 6 23 -7
v 6 23 -8
v 6 25 5
v 6 25 -7
v 6 25 -8
v 6 26 5
v 6 26 -7
v 7 2 4
v 7 2 -6
v 7 3 4
v 7 3 -6
v 7 21 -7
v 7 21 -8
v 7 23 5
v 7 23 -7
v 7 23 -8
v 7 25 5
v 7 25 -7
v 8 0 5
v 8 0 -7
v 8 2 5
v 8 2 -7
v 8 4 -7
v 8 4 -8
v 8 21 -7
v 8 21 -8
v 8 22 5
v 8 22 -7
v 8 23 5
v 8 23 -7
v 9 3 5
v 9 3 -8
v 9 4 -7
v 9 4 -8
v 9 9 5
v 9 9 2
v 9 14 5
v 9 14 2
v 9 22 5
v 9 22 -7
v 10 9 8
v 10 9 2
v 10 10 9
v 10 10 8
v 10 11 10
v 10 11 9
v 10 12 11
v 10 12 10
v 10 14 11
v 10 14 2
v -15 20 11
v -15 21 11
v -14 19 11
v -14 20 11
v -14 21 11
v -13 18 11
v -13 19 11
v -13 21 11
v -12 18 11
v -12 21 11
v -11 12 11
v -11 14 11
v -11 18 11
v -11 21 11
v -10 12 11
v -10 14 11
v -10 18 11
v -10 21 11
v -9 12 11
v -9 21 11
v 9 12 11
v 9 14 11
v 10 12 11
v 10 14 11
v -11 11 10
v -11 12 10
v -10 11 10
v -10 12 10
v 9 11 10
v 9 12 10
v 10 11 10
v 10 12 10
v -11 10 9
v -11 11 9
v -10 10 9
v -10 11 9
v 9 10 9
v 9 11 9
v 10 10 9
v 10 11 9
v -11 9 8
v -11 10 8
v -10 9 8
v -10 10 8
v 9 9 8
v 9 10 8
v 10 9 8
v 10 10 8
v -4 26 7
v -4 27 7
v -3 14 7
v -3 17 7
v 2 14 7
v 2 17 7
v 3 26 7
v 3 27 7
v -2 28 6
v -2 29 6
v -1 28 6
v -1 29 6
v 0 28 6
v 0 29 6
v 1 28 6
v 1 29 6
v -10 3 5
v -10 9 5
v -10 14 5
v -10 21 5
v -9 0 5
v -9 2 5
v -9 21 5
v -9 23 5
v -8 13 5
v -8 18 5
v -8 23 5
v -8 25 5
v -7 18 5
v -7 21 5
v -7 25 5
v -7 26 5
v -6 3 5
v -6 13 5
v -5 17 5
v -5 20 5
v -5 21 5
v -5 22 5
v -4 17 5
v -4 20 5
v -4 26 5
v -4 27 5
v -4 31 5
v -3 14 5
v -3 17 5
v -2 28 5
v -2 29 5
v -1 0 5
v -1 1 5
v -1 28 5
v -1 29 5
v 0 0 5
v 0 1 5
v 0 28 5
v 0 29 5
v 1 28 5
v 1 29 5
v 2 14 5
v 2 17 5
v 3 17 5
v 3 20 5
v 3 26 5
v 3 27 5
v 3 31 5
v 4 17 5
v 4 20 5
v 4 21 5
v 4 22 5
v 5 3 5
v 5 13 5
v 6 18 5
v 6 21 5
v 6 25 5
v 6 26 5
v 7 13 5
v 7 18 5
v 7 23 5
v 7 25 5
v 8 0 5
v 8 2 5
v 8 22 5
v 8 23 5
v 9 3 5
v 9 9 5
v 9 14 5
v 9 22 5
v -8 2 4
v -8 3 4
v -6 3 4
v -2 15 4
v -2 16 4
v 1 15 4
v 1 16 4
v 5 3 4
v 7 2 4
v 7 3 4
v -15 20 10
v -15 21 10
v -14 19 10
v -14 20 10
v -14 21 10
v -13 18 10
v -13 19 10
v -13 21 10
v -12 18 10
v -12 21 10
v -11 18 10
v -11 21 10
v -10 12 10
v -10 14 10
v -10 18 10
v -10 21 10
v -9 12 10
v -9 21 10
v -2 15 6
v -2 16 6
v 1 15 6
v 1 16 6
v 9 9 2
v 9 14 2
v 10 9 2
v 10 14 2
v -11 9 1
v -11 14 1
v -10 9 1
v -10 14 1
v -4 26 -2
v -4 27 -2
v -4 31 -2
v 3 26 -2
v 3 27 -2
v 3 31 -2
v -8 2 -6
v -8 3 -6
v 7 2 -6
v 7 3 -6
v -10 4 -7
v -10 21 -7
v -9 0 -7
v -9 2 -7
v -9 4 -7
v -9 21 -7
v -9 23 -7
v -8 21 -7
v -8 23 -7
v -8 25 -7
v -7 23 -7
v -7 25 -7
v -7 26 -7
v -1 0 -7
v -1 1 -7
v 0 0 -7
v 0 1 -7
v 6 23 -7
v 6 25 -7
v 6 26 -7
v 7 21 -7
v 7 23 -7
v 7 25 -7
v 8 0 -7
v 8 2 -7
v 8 4 -7
v 8 21 -7
v 8 22 -7
v 8 23 -7
v 9 4 -7
v 9 22 -7
v -10 3 -8
v -10 4 -8
v -9 4 -8
v -9 21 -8
v -8 21 -8
v -8 23 -8
v -7 23 -8
v -7 25 -8
v -6 3 -8
v -6 4 -8
v 5 3 -8
v 5 4 -8
v 6 23 -8
v 6 25 -8
v 7 21 -8
v 7 23 -8
v 8 4 -8
v 8 21 -8
v 9 3 -8
v 9 4 -8
v -6 3 -9
v -6 4 -9
v 5 3 -9
v 5 4 -9
v -9 0 5
v -1 0 5
v 0 0 5
v 8 0 5
v -9 0 -7
v -1 0 -7
v 0 0 -7
v 8 0 -7
v -1 1 5
v 0 1 5
v -1 1 -7
v 0 1 -7
v -10 3 5
v -6 3 5
v 5 3 5
v 9 3 5
v -9 3 4
v -8 3 4
v -6 3 4
v 5 3 4
v 7 3 4
v 8 3 4
v -8 3 -6
v 7 3 -6
v -9 3 -7
v -8 3 -7
v 7 3 -7
v 8 3 -7
v -10 3 -8
v -6 3 -8
v 5 3 -8
v 9 3 -8
v -6 3 -9
v 5 3 -9
v -11 9 8
v -10 9 8
v 9 9 8
v 10 9 8
v -10 9 5
v 9 9 5
v 9 9 2
v 10 9 2
v -11 9 1
v -10 9 1
v -11 10 9
v -10 10 9
v 9 10 9
v 10 10 9
v -11 10 8
v -10 10 8
v 9 10 8
v 10 10 8
v -11 11 10
v -10 11 10
v 9 11 10
v 10 11 10
v -11 11 9
v -10 11 9
v 9 11 9
v 10 11 9
v -11 12 11
v -10 12 11
v -9 12 11
v 9 12 11
v 10 12 11
v -11 12 10
v -10 12 10
v -9 12 10
v 9 12 10
v 10 12 10
v -3 14 7
v 2 14 7
v -3 14 5
v 2 14 5
v -2 16 6
v 1 16 6
v -2 16 5
v 1 16 5
v -2 16 4
v 1 16 4
v -13 18 11
v -12 18 11
v -11 18 11
v -10 18 11
v -13 18 10
v -12 18 10
v -11 18 10
v -10 18 10
v -14 19 11
v -13 19 11
v -14 19 10
v -13 19 10
v -15 20 11
v -14 20 11
v -15 20 10
v -14 20 10
v -4 26 7
v 3 26 7
v -4 26 5
v 3 26 5
v -2 28 6
v -1 28 6
v 0 28 6
v 1 28 6
v -2 28 5
v -1 28 5
v 0 28 5
v 1 28 5
v -9 2 5
v 8 2 5
v -8 2 4
v 7 2 4
v -8 2 -6
v 7 2 -6
v -9 2 -7
v 8 2 -7
v -10 4 -7
v -9 4 -7
v 8 4 -7
v 9 4 -7
v -10 4 -8
v -9 4 -8
v -6 4 -8
v 5 4 -8
v 8 4 -8
v 9 4 -8
v -6 4 -9
v 5 4 -9
v -11 14 11
v -10 14 11
v 9 14 11
v 10 14 11
v -10 14 10
v -10 14 5
v 9 14 5
v 9 14 2
v 10 14 2
v -11 14 1
v -10 14 1
v -2 15 6
v 1 15 6
v -2 15 5
v 1 15 5
v -2 15 4
v 1 15 4
v -3 17 7
v 2 17 7
v -3 17 5
v 2 17 5
v -15 21 11
v -14 21 11
v -13 21 11
v -12 21 11
v -11 21 11
v -10 21 11
v -9 21 11
v -15 21 10
v -14 21 10
v -13 21 10
v -12 21 10
v -11 21 10
v -10 21 10
v -9 21 10
v -10 21 5
v -9 21 5
v -10 21 -7
v -9 21 -7
v -8 21 -7
v 7 21 -7
v 8 21 -7
v -9 21 -8
v -8 21 -8
v 7 21 -8
v 8 21 -8
v 8 22 5
v 9 22 5
v 8 22 -7
v 9 22 -7
v -9 23 5
v -8 23 5
v 7 23 5
v 8 23 5
v -9 23 -7
v -8 23 -7
v -7 23 -7
v 6 23 -7
v 7 23 -7
v 8 23 -7
v -8 23 -8
v -7 23 -8
v 6 23 -8
v 7 23 -8
v -8 25 5
v -7 25 5
v 6 25 5
v 7 25 5
v -8 25 -7
v -7 25 -7
v 6 25 -7
v 7 25 -7
v -7 25 -8
v 6 25 -8
v -7 26 5
v -4 26 5
v 3 26 5
v 6 26 5
v -4 26 -2
v 3 26 -2
v -7 26 -7
v 6 26 -7
v -4 27 7
v 3 27 7
v -4 27 5
v 3 27 5
v -2 29 6
v -1 29 6
v 0 29 6
v 1 29 6
v -2 29 5
v -1 29 5
v 0 29 5
v 1 29 5
v -4 31 5
v 3 31 5
v -4 31 -2
v 3 31 -2

# faces
f 3/4/1 2/4/1 1/4/1
f 4/4/1 2/4/1 3/4/1
f 7/5/1 6/5/1 5/5/1
f 8/5/1 6/5/1 7/5/1
f 11/4/1 10/4/1 9/4/1
f 12/4/1 10/4/1 11/4/1
f 16/9/1 14/9/1 13/9/1
f 18/9/1 16/9/1 15/9/1
f 20/9/1 18/9/1 17/9/1
f 21/9/1 20/9/1 19/9/1
f 22/9/1 14/9/1 16/9/1
f 22/9/1 20/9/1 21/9/1
f 22/9/1 16/9/1 18/9/1
f 22/9/1 18/9/1 20/9/1
f 25/9/1 24/9/1 23/9/1
f 26/9/1 24/9/1 25/9/1
f 27/9/1 25/9/1 23/9/1
f 28/9/1 25/9/1 27/9/1
f 32/9/1 25/9/1 28/9/1
f 33/8/1 30/8/1 29/8/1
f 34/8/1 30/8/1 33/8/1
f 35/9/1 32/9/1 31/9/1
f 36/9/1 25/9/1 32/9/1
f 36/9/1 32/9/1 35/9/1
f 39/3/1 38/3/1 37/3/1
f 40/3/1 38/3/1 39/3/1
f 44/9/1 42/9/1 41/9/1
f 45/9/1 42/9/1 44/9/1
f 46/9/1 44/9/1 43/9/1
f 47/9/1 44/9/1 46/9/1
f 50/1/1 49/1/1 48/1/1
f 51/1/1 49/1/1 50/1/1
f 55/9/1 53/9/1 52/9/1
f 56/9/1 53/9/1 55/9/1
f 57/9/1 55/9/1 54/9/1
f 58/9/1 55/9/1 57/9/1
f 62/9/1 60/9/1 59/9/1
f 63/9/1 60/9/1 62/9/1
f 64/9/1 62/9/1 61/9/1
f 65/9/1 62/9/1 64/9/1
f 68/9/1 67/9/1 66/9/1
f 69/9/1 67/9/1 68/9/1
f 73/6/1 71/6/1 70/6/1
f 74/4/1 72/4/1 71/4/1
f 74/6/1 71/6/1 73/6/1
f 75/4/1 72/4/1 74/4/1
f 76/5/1 75/5/1 74/5/1
f 77/5/1 75/5/1 76/5/1
f 80/3/1 79/3/1 78/3/1
f 81/3/1 79/3/1 80/3/1
f 84/7/1 83/7/1 82/7/1
f 85/7/1 83/7/1 84/7/1
f 88/3/1 87/3/1 86/3/1
f 89/3/1 87/3/1 88/3/1
f 92/7/1 91/7/1 90/7/1
f 93/7/1 91/7/1 92/7/1
f 97/3/1 95/3/1 94/3/1
f 98/2/1 96/2/1 95/2/1
f 98/3/1 95/3/1 97/3/1
f 99/2/1 96/2/1 98/2/1
f 103/9/1 101/9/1 100/9/1
f 105/9/1 103/9/1 102/9/1
f 107/9/1 105/9/1 104/9/1
f 108/9/1 107/9/1 106/9/1
f 109/9/1 101/9/1 103/9/1
f 109/9/1 107/9/1 108/9/1
f 109/9/1 103/9/1 105/9/1
f 109/9/1 105/9/1 107/9/1
f 110/9/2 111/9/2 113/9/2
f 112/9/2 113/9/2 115/9/2
f 114/9/2 115/9/2 116/9/2
f 116/9/2 115/9/2 117/9/2
f 113/9/2 111/9/2 118/9/2
f 117/9/2 115/9/2 118/9/2
f 115/9/2 113/9/2 118/9/2
f 119/8/2 120/8/2 121/8/2
f 121/8/2 120/8/2 122/8/2
f 123/3/2 124/3/2 126/3/2
f 124/2/2 125/2/2 127/2/2
f 126/3/2 124/3/2 127/3/2
f 127/2/2 125/2/2 128/2/2
f 129/3/2 130/3/2 131/3/2
f 131/3/2 130/3/2 132/3/2
f 133/7/2 134/7/2 135/7/2
f 135/7/2 134/7/2 136/7/2
f 137/7/2 138/7/2 139/7/2
f 139/7/2 138/7/2 140/7/2
f 141/3/2 142/3/2 143/3/2
f 143/3/2 142/3/2 144/3/2
f 145/6/2 146/6/2 148/6/2
f 146/4/2 147/4/2 149/4/2
f 148/6/2 146/6/2 149/6/2
f 149/4/2 147/4/2 150/4/2
f 149/5/2 150/5/2 151/5/2
f 151/5/2 150/5/2 152/5/2
f 153/9/2 154/9/2 155/9/2
f 155/9/2 154/9/2 156/9/2
f 157/9/2 158/9/2 160/9/2
f 160/9/2 158/9/2 161/9/2
f 159/9/2 160/9/2 162/9/2
f 162/9/2 160/9/2 163/9/2
f 164/1/2 165/1/2 166/1/2
f 166/1/2 165/1/2 167/1/2
f 168/9/2 169/9/2 171/9/2
f 171/9/2 169/9/2 172/9/2
f 170/9/2 171/9/2 173/9/2
f 173/9/2 171/9/2 174/9/2
f 175/3/2 176/3/2 177/3/2
f 177/3/2 176/3/2 178/3/2
f 179/9/2 180/9/2 181/9/2
f 181/9/2 180/9/2 182/9/2
f 183/9/2 184/9/2 185/9/2
f 185/9/2 184/9/2 186/9/2
f 187/9/2 188/9/2 189/9/2
f 189/9/2 188/9/2 190/9/2
f 187/9/2 189/9/2 191/9/2
f 191/9/2 189/9/2 192/9/2
f 192/9/2 189/9/2 194/9/2
f 193/9/2 194/9/2 195/9/2
f 194/9/2 189/9/2 196/9/2
f 195/9/2 194/9/2 196/9/2
f 197/9/2 198/9/2 200/9/2
f 199/9/2 200/9/2 202/9/2
f 201/9/2 202/9/2 204/9/2
f 203/9/2 204/9/2 205/9/2
f 200/9/2 198/9/2 206/9/2
f 205/9/2 204/9/2 206/9/2
f 202/9/2 200/9/2 206/9/2
f 204/9/2 202/9/2 206/9/2
f 210/4/3 208/4/3 207/4/3
f 211/4/3 208/4/3 210/4/3
f 213/5/3 210/5/3 209/5/3
f 213/5/3 211/5/3 210/5/3
f 214/5/3 211/5/3 213/5/3
f 215/4/3 213/4/3 212/4/3
f 215/4/3 214/4/3 213/4/3
f 216/4/3 214/4/3 215/4/3
f 219/5/3 216/5/3 215/5/3
f 220/5/3 216/5/3 219/5/3
f 221/9/3 218/9/3 217/9/3
f 222/9/3 218/9/3 221/9/3
f 223/4/3 220/4/3 219/4/3
f 224/4/3 220/4/3 223/4/3
f 225/8/3 222/8/3 221/8/3
f 225/8/3 223/8/3 222/8/3
f 225/8/3 224/8/3 223/8/3
f 226/8/3 224/8/3 225/8/3
f 229/9/3 228/9/3 227/9/3
f 230/9/3 228/9/3 229/9/3
f 233/9/3 232/9/3 231/9/3
f 234/9/3 232/9/3 233/9/3
f 237/9/3 236/9/3 235/9/3
f 238/9/3 236/9/3 237/9/3
f 241/9/3 240/9/3 239/9/3
f 242/9/3 240/9/3 241/9/3
f 245/9/3 244/9/3 243/9/3
f 246/9/3 244/9/3 245/9/3
f 249/9/3 248/9/3 247/9/3
f 250/9/3 248/9/3 249/9/3
f 253/9/3 252/9/3 251/9/3
f 254/9/3 252/9/3 253/9/3
f 259/3/3 258/3/3 257/3/3
f 260/3/3 258/3/3 259/3/3
f 261/6/3 256/6/3 255/6/3
f 262/6/3 256/6/3 261/6/3
f 265/7/3 264/7/3 263/7/3
f 266/7/3 264/7/3 265/7/3
f 269/7/3 268/7/3 267/7/3
f 270/7/3 268/7/3 269/7/3
f 277/9/3 272/9/3 271/9/3
f 277/9/3 273/9/3 272/9/3
f 277/9/3 274/9/3 273/9/3
f 279/9/3 277/9/3 271/9/3
f 279/9/3 278/9/3 277/9/3
f 280/9/3 278/9/3 279/9/3
f 281/9/3 278/9/3 280/9/3
f 283/1/3 280/1/3 279/1/3
f 283/9/3 282/9/3 281/9/3
f 283/9/3 281/9/3 280/9/3
f 284/9/3 282/9/3 283/9/3
f 285/9/3 282/9/3 284/9/3
f 287/9/3 279/9/3 271/9/3
f 288/1/3 283/1/3 279/1/3
f 288/9/3 279/9/3 287/9/3
f 288/1/3 284/1/3 283/1/3
f 289/1/3 288/1/3 287/1/3
f 289/1/3 284/1/3 288/1/3
f 290/1/3 284/1/3 289/1/3
f 291/9/3 286/9/3 285/9/3
f 291/1/3 284/1/3 290/1/3
f 291/9/3 285/9/3 284/9/3
f 292/9/3 286/9/3 291/9/3
f 293/9/3 290/9/3 289/9/3
f 293/1/3 289/1/3 287/1/3
f 294/1/3 292/1/3 291/1/3
f 294/9/3 290/9/3 293/9/3
f 294/1/3 291/1/3 290/1/3
f 295/9/3 286/9/3 292/9/3
f 298/1/3 293/1/3 287/1/3
f 298/1/3 294/1/3 293/1/3
f 299/1/3 294/1/3 298/1/3
f 300/5/3 297/5/3 296/5/3
f 301/5/3 297/5/3 300/5/3
f 302/3/3 276/3/3 275/3/3
f 303/3/3 276/3/3 302/3/3
f 304/5/3 300/5/3 296/5/3
f 305/5/3 297/5/3 301/5/3
f 307/3/3 276/3/3 303/3/3
f 308/5/3 304/5/3 296/5/3
f 308/5/3 305/5/3 304/5/3
f 309/5/3 297/5/3 305/5/3
f 309/5/3 305/5/3 308/5/3
f 310/5/3 308/5/3 296/5/3
f 311/5/3 297/5/3 309/5/3
f 312/1/3 298/1/3 287/1/3
f 313/1/3 294/1/3 299/1/3
f 314/1/3 294/1/3 313/1/3
f 314/1/3 313/1/3 312/1/3
f 315/1/3 292/1/3 294/1/3
f 315/1/3 294/1/3 314/1/3
f 316/9/3 295/9/3 292/9/3
f 317/5/3 311/5/3 310/5/3
f 317/5/3 310/5/3 296/5/3
f 318/5/3 297/5/3 311/5/3
f 318/5/3 311/5/3 317/5/3
f 319/1/3 314/1/3 312/1/3
f 319/9/3 315/9/3 314/9/3
f 320/1/3 292/1/3 315/1/3
f 320/9/3 315/9/3 319/9/3
f 321/1/3 292/1/3 320/1/3
f 322/9/3 316/9/3 292/9/3
f 322/1/3 292/1/3 321/1/3
f 323/1/3 312/1/3 287/1/3
f 323/1/3 319/1/3 312/1/3
f 323/1/3 321/1/3 320/1/3
f 323/1/3 320/1/3 319/1/3
f 324/1/3 321/1/3 323/1/3
f 325/1/3 321/1/3 324/1/3
f 326/9/3 322/9/3 321/9/3
f 326/1/3 321/1/3 325/1/3
f 327/9/3 316/9/3 322/9/3
f 327/9/3 322/9/3 326/9/3
f 328/9/3 316/9/3 327/9/3
f 329/1/3 325/1/3 324/1/3
f 329/9/3 324/9/3 323/9/3
f 330/9/3 326/9/3 325/9/3
f 330/1/3 325/1/3 329/1/3
f 330/9/3 327/9/3 326/9/3
f 331/9/3 327/9/3 330/9/3
f 332/9/3 327/9/3 331/9/3
f 333/3/3 307/3/3 306/3/3
f 334/3/3 276/3/3 307/3/3
f 334/3/3 307/3/3 333/3/3
f 335/9/3 330/9/3 329/9/3
f 335/9/3 331/9/3 330/9/3
f 336/9/3 331/9/3 335/9/3
f 337/9/3 329/9/3 323/9/3
f 337/9/3 335/9/3 329/9/3
f 338/9/3 335/9/3 337/9/3
f 339/9/3 335/9/3 338/9/3
f 340/9/3 335/9/3 339/9/3
f 343/1/3 342/1/3 341/1/3
f 346/2/3 345/2/3 344/2/3
f 347/2/3 345/2/3 346/2/3
f 348/1/3 343/1/3 341/1/3
f 349/1/3 348/1/3 341/1/3
f 350/1/3 348/1/3 349/1/3
f 351/4/4 352/4/4 354/4/4
f 354/4/4 352/4/4 355/4/4
f 353/5/4 354/5/4 357/5/4
f 354/5/4 355/5/4 357/5/4
f 357/5/4 355/5/4 358/5/4
f 356/4/4 357/4/4 359/4/4
f 357/4/4 358/4/4 359/4/4
f 359/4/4 358/4/4 360/4/4
f 359/5/4 360/5/4 361/5/4
f 361/5/4 360/5/4 362/5/4
f 361/4/4 362/4/4 365/4/4
f 365/4/4 362/4/4 366/4/4
f 363/8/4 364/8/4 367/8/4
f 364/8/4 365/8/4 367/8/4
f 365/8/4 366/8/4 367/8/4
f 367/8/4 366/8/4 368/8/4
f 369/3/4 370/3/4 371/3/4
f 371/3/4 370/3/4 372/3/4
f 373/9/4 374/9/4 375/9/4
f 375/9/4 374/9/4 376/9/4
f 377/9/4 378/9/4 379/9/4
f 379/9/4 378/9/4 380/9/4
f 381/4/4 382/4/4 384/4/4
f 382/5/4 383/5/4 385/5/4
f 384/4/4 382/4/4 385/4/4
f 385/5/4 383/5/4 386/5/4
f 387/1/4 388/1/4 389/1/4
f 389/1/4 388/1/4 390/1/4
f 391/9/4 392/9/4 395/9/4
f 395/9/4 392/9/4 396/9/4
f 396/9/4 397/9/4 398/9/4
f 398/9/4 397/9/4 399/9/4
f 399/9/4 400/9/4 401/9/4
f 401/9/4 400/9/4 402/9/4
f 393/3/4 394/3/4 404/3/4
f 404/3/4 394/3/4 405/3/4
f 405/3/4 394/3/4 407/3/4
f 402/9/4 403/9/4 409/9/4
f 409/9/4 403/9/4 410/9/4
f 408/9/4 409/9/4 412/9/4
f 412/9/4 409/9/4 413/9/4
f 406/3/4 407/3/4 414/3/4
f 407/3/4 394/3/4 415/3/4
f 414/3/4 407/3/4 415/3/4
f 411/9/4 412/9/4 417/9/4
f 417/9/4 412/9/4 418/9/4
f 418/9/4 412/9/4 419/9/4
f 416/9/4 417/9/4 420/9/4
f 417/9/4 418/9/4 420/9/4
f 420/9/4 418/9/4 421/9/4
f 422/9/4 423/9/4 424/9/4
f 424/9/4 425/9/4 426/9/4
f 426/9/4 427/9/4 428/9/4
f 422/9/4 424/9/4 430/9/4
f 428/9/4 429/9/4 430/9/4
f 426/9/4 428/9/4 430/9/4
f 424/9/4 426/9/4 430/9/4
f 430/9/4 429/9/4 431/9/4
f 431/9/4 429/9/4 433/9/4
f 433/9/4 429/9/4 434/9/4
f 432/9/4 433/9/4 434/9/4
f 434/9/4 429/9/4 435/9/4
f 432/9/4 434/9/4 436/9/4
f 436/9/4 434/9/4 437/9/4
f 432/9/4 436/9/4 438/9/4
f 438/9/4 436/9/4 439/9/4
f 432/9/4 438/9/4 440/9/4
f 440/9/4 438/9/4 441/9/4
f 442/9/4 443/9/4 444/9/4
f 444/9/4 443/9/4 445/9/4
f 450/3/5 447/3/5 446/3/5
f 451/3/5 447/3/5 450/3/5
f 452/3/5 449/3/5 448/3/5
f 453/3/5 449/3/5 452/3/5
f 456/3/5 455/3/5 454/3/5
f 457/3/5 455/3/5 456/3/5
f 462/9/5 459/9/5 458/9/5
f 463/9/5 459/9/5 462/9/5
f 464/1/5 460/1/5 459/1/5
f 464/9/5 459/9/5 463/9/5
f 465/9/5 461/9/5 460/9/5
f 465/1/5 460/1/5 464/1/5
f 466/9/5 461/9/5 465/9/5
f 467/9/5 461/9/5 466/9/5
f 468/1/5 463/1/5 462/1/5
f 469/1/5 467/1/5 466/1/5
f 470/1/5 468/1/5 462/1/5
f 470/9/5 462/9/5 458/9/5
f 471/2/5 469/2/5 468/2/5
f 471/1/5 468/1/5 470/1/5
f 472/1/5 467/1/5 469/1/5
f 472/2/5 469/2/5 471/2/5
f 473/9/5 461/9/5 467/9/5
f 473/1/5 467/1/5 472/1/5
f 474/9/5 472/9/5 471/9/5
f 474/9/5 470/9/5 458/9/5
f 474/9/5 473/9/5 472/9/5
f 474/9/5 471/9/5 470/9/5
f 475/9/5 473/9/5 474/9/5
f 476/9/5 473/9/5 475/9/5
f 477/9/5 461/9/5 473/9/5
f 477/9/5 473/9/5 476/9/5
f 478/9/5 476/9/5 475/9/5
f 479/9/5 476/9/5 478/9/5
f 484/9/5 481/9/5 480/9/5
f 485/9/5 483/9/5 482/9/5
f 486/9/5 483/9/5 485/9/5
f 487/9/5 483/9/5 486/9/5
f 488/9/5 484/9/5 480/9/5
f 489/9/5 484/9/5 488/9/5
f 494/9/5 491/9/5 490/9/5
f 495/9/5 491/9/5 494/9/5
f 496/9/5 493/9/5 492/9/5
f 497/9/5 493/9/5 496/9/5
f 502/9/5 499/9/5 498/9/5
f 503/9/5 499/9/5 502/9/5
f 504/9/5 501/9/5 500/9/5
f 505/9/5 501/9/5 504/9/5
f 511/9/5 507/9/5 506/9/5
f 512/8/5 508/8/5 507/8/5
f 512/9/5 507/9/5 511/9/5
f 513/8/5 508/8/5 512/8/5
f 514/9/5 510/9/5 509/9/5
f 515/9/5 510/9/5 514/9/5
f 518/3/5 517/3/5 516/3/5
f 519/3/5 517/3/5 518/3/5
f 522/3/5 521/3/5 520/3/5
f 523/3/5 521/3/5 522/3/5
f 524/2/5 523/2/5 522/2/5
f 525/2/5 523/2/5 524/2/5
f 530/4/5 527/4/5 526/4/5
f 531/5/5 528/5/5 527/5/5
f 531/4/5 527/4/5 530/4/5
f 532/4/5 529/4/5 528/4/5
f 532/5/5 528/5/5 531/5/5
f 533/4/5 529/4/5 532/4/5
f 536/5/5 535/5/5 534/5/5
f 537/5/5 535/5/5 536/5/5
f 540/4/5 539/4/5 538/4/5
f 541/4/5 539/4/5 540/4/5
f 544/6/5 543/6/5 542/6/5
f 545/6/5 543/6/5 544/6/5
f 550/7/5 547/7/5 546/7/5
f 551/7/5 547/7/5 550/7/5
f 552/7/5 549/7/5 548/7/5
f 553/7/5 549/7/5 552/7/5
f 554/3/6 555/3/6 556/3/6
f 556/3/6 555/3/6 557/3/6
f 554/3/6 556/3/6 558/3/6
f 557/3/6 555/3/6 559/3/6
f 554/3/6 558/3/6 560/3/6
f 558/3/6 559/3/6 560/3/6
f 559/3/6 555/3/6 561/3/6
f 560/3/6 559/3/6 561/3/6
f 562/9/6 563/9/6 566/9/6
f 566/9/6 563/9/6 567/9/6
f 564/9/6 565/9/6 570/9/6
f 570/9/6 565/9/6 571/9/6
f 568/9/6 569/9/6 572/9/6
f 572/9/6 569/9/6 573/9/6
f 574/9/6 575/9/6 578/9/6
f 574/9/6 578/9/6 579/9/6
f 576/9/6 577/9/6 580/9/6
f 580/9/6 577/9/6 581/9/6
f 581/9/6 577/9/6 582/9/6
f 574/9/6 579/9/6 583/9/6
f 583/9/6 579/9/6 584/9/6
f 585/3/6 586/3/6 587/3/6
f 587/3/6 586/3/6 588/3/6
f 587/2/6 588/2/6 589/2/6
f 589/2/6 588/2/6 590/2/6
f 591/3/6 592/3/6 593/3/6
f 593/3/6 592/3/6 594/3/6
f 595/4/6 596/4/6 602/4/6
f 596/5/6 597/5/6 603/5/6
f 602/4/6 596/4/6 603/4/6
f 597/4/6 598/4/6 604/4/6
f 603/5/6 597/5/6 604/5/6
f 598/5/6 599/5/6 605/5/6
f 604/4/6 598/4/6 605/4/6
f 599/4/6 600/4/6 606/4/6
f 605/5/6 599/5/6 606/5/6
f 600/8/6 601/8/6 607/8/6
f 606/4/6 600/4/6 607/4/6
f 607/8/6 601/8/6 608/8/6
f 609/9/6 610/9/6 611/9/6
f 611/9/6 610/9/6 612/9/6
f 612/9/6 613/9/6 616/9/6
f 616/9/6 613/9/6 617/9/6
f 614/9/6 615/9/6 618/9/6
f 618/9/6 615/9/6 619/9/6
f 620/9/6 621/9/6 622/9/6
f 622/9/6 621/9/6 623/9/6
f 624/9/6 625/9/6 628/9/6
f 628/9/6 625/9/6 629/9/6
f 626/9/6 627/9/6 632/9/6
f 632/9/6 627/9/6 633/9/6
f 629/9/6 630/9/6 634/9/6
f 634/9/6 630/9/6 635/9/6
f 631/9/6 632/9/6 636/9/6
f 636/9/6 632/9/6 637/9/6
f 638/9/6 639/9/6 642/9/6
f 642/9/6 639/9/6 643/9/6
f 640/9/6 641/9/6 644/9/6
f 644/9/6 641/9/6 645/9/6
f 643/9/6 644/9/6 646/9/6
f 646/9/6 644/9/6 647/9/6
f 648/9/6 649/9/6 652/9/6
f 650/9/6 651/9/6 653/9/6
f 648/9/6 652/9/6 654/9/6
f 652/9/6 653/9/6 654/9/6
f 653/9/6 651/9/6 655/9/6
f 654/9/6 653/9/6 655/9/6
f 656/6/6 657/6/6 658/6/6
f 658/6/6 657/6/6 659/6/6
f 660/7/6 661/7/6 664/7/6
f 664/7/6 661/7/6 665/7/6
f 662/7/6 663/7/6 666/7/6
f 666/7/6 663/7/6 667/7/6
f 668/5/6 669/5/6 670/5/6
f 670/5/6 669/5/6 671/5/6
